<?xml version="1.0" encoding="UTF-8"?><svg id="Capa_2" xmlns="http://www.w3.org/2000/svg" xmlns:xlink="http://www.w3.org/1999/xlink" viewBox="0 0 90 90"><defs><style>.cls-1{fill:url(#Degradado_sin_nombre_341);}.cls-2{fill:#d33226;}.cls-3{fill:none;}</style><linearGradient id="Degradado_sin_nombre_341" x1="14.18" y1="46.49" x2="69.22" y2="40.7" gradientUnits="userSpaceOnUse"><stop offset="0" stop-color="#0eae93"/><stop offset=".03" stop-color="#0ea596"/><stop offset=".21" stop-color="#137aa9"/><stop offset=".38" stop-color="#1658b8"/><stop offset=".54" stop-color="#1940c3"/><stop offset=".69" stop-color="#1a32c9"/><stop offset=".81" stop-color="#1b2dcc"/></linearGradient></defs><g id="Capa_1-2"><rect class="cls-3" width="90" height="90"/><path class="cls-1" d="m66.09,13.09c.42-.55.02-1.34-.67-1.34h-10.11c-.44,0-.85.2-1.11.55l-25.86,34.2c-.15.2-.46.09-.46-.16v-16.71c0-.46-.38-.84-.84-.84h-2.88l-7.37,20.09v22.28c0,.46.38.84.84.84h9.42c.46,0,.84-.38.84-.84v-20.1c0-.2.16-.36.36-.36h4.76c.44,0,.85.21,1.11.55l15.27,20.2c.26.35.67.55,1.11.55h10.57c.5,0,.79-.58.49-.98l-15.18-20.07c-.26-.35-.67-.55-1.11-.55h-6.72c-.26,0-.41-.31-.25-.52l27.81-36.78Z"/><rect class="cls-2" x="67.9" y="62.8" width="9.19" height="9.19"/></g></svg>